/* XPM */
static char *d64976556e144c80a3b4f9ab8c1a55e1[] = {
/* columns rows colors chars-per-pixel */
"64 64 4 1 ",
"  c None",
". c #3F3F74",
"X c #FBF236",
"o c #639BFF",
/* pixels */
"                                                                ",
"                                                                ",
"                                                                ",
"                                                                ",
"                                                                ",
"                          o                                     ",
"                          oo                                    ",
"                           o                                    ",
"                           o                                    ",
"                           oo                                   ",
"               ooooooooooooooooooooooooooooo                    ",
"               o            o              o                    ",
"               o            o              oo                   ",
"               o            o               o                   ",
"               o     X      o      .        o                   ",
"               o     XX     o      .        o                   ",
"               o      X     o      .        o                   ",
"               o      X     o      .        o                   ",
"               o      XX    o      ..       o                   ",
"               o       X     o      .       o                   ",
"               o       X     o      ..      oo                  ",
"               o       X     o       .       o                  ",
"               o             o       ..      o                  ",
"               oo            oo              o                  ",
"                o             o              o                  ",
"                o             o              o                  ",
"                o o           o              o                  ",
"                oooooooooooooooooooooooooooooo                  ",
"                o             o              o                  ",
"                              o                                 ",
"                              o                                 ",
"                              o                                 ",
"                              o                                 ",
"                              oo                                ",
"                              oo                                ",
"                              o                                 ",
"                              oo                                ",
"                               o                                ",
"                               o                                ",
"                               o                                ",
"                                o                               ",
"                                o                               ",
"                                o                               ",
"                                o                               ",
"                                oo                              ",
"                                 o                              ",
"                                 o                              ",
"                                 o                              ",
"                                 o                              ",
"                                 oo                             ",
"                                  o                             ",
"                                  o                             ",
"                   oooooooooooooooooooooooooooooo               ",
"                ooooooooooooooooooooooo oooooo                  ",
"             ooooooooooooooooooo oo                             ",
"                                                                ",
"                                                                ",
"                                                                ",
"                                                                ",
"                                                                ",
"                                                                ",
"                                                                ",
"                                                                ",
"                                                                "
};
