/* XPM */
static char *_3202e965d1640bac772754d62b1c41c[] = {
/* columns rows colors chars-per-pixel */
"64 64 3 1 ",
"  c #000C31",
". c #091A3D",
"X c #0E2A63",
/* pixels */
"                                                                ",
"  ....XXXXXXXXXXXXXXXXXXXXXXXXX  .......X.XXXXXXXXXXXXXXXX.XXXX ",
" .............................X  .............................X ",
" .............................X  .............................X ",
" .............................X  .............................X ",
" .............................X  .............................X ",
" .............................X  .............................X ",
" .............................X  .............................. ",
" ..............................  .............  ............... ",
"  .............................  .............................. ",
"  .............................  .............................. ",
"  .............................  .............................. ",
"  .............................  .............................. ",
"  .............................  .............................. ",
"  .............................  .............................. ",
"      .........................               ................  ",
"                                                                ",
" ..XXXXXX  ....XXXXXXXXXXXXXXXXXXXXXXXXXXXXXXXXXXX   .....X..XX ",
" .......X .......................................X  ..........X ",
" ........ .......................................X ............ ",
" ........ .......................................X ............ ",
" ........ .......................................X ............ ",
" ........ .......................................X ............ ",
"  ....... .......................................X ............ ",
"  ....... ............X .........................X ............ ",
"  ....... ........................................ ............ ",
"  ....... ........................................ ............ ",
"  ....... ........................................ ............ ",
"  ....... ........................................ ............ ",
"  .......  ....................................... ............ ",
"  .......  .......................................  ........... ",
"  .......         .................                  .........  ",
"                                                                ",
"  ............XXXXXXXXXXXX...XXXXXXXXXXX    ..........XXXXXXXXX ",
" .......................................  ....................X ",
" .......................................  ....................X ",
" ....................................... .....................X ",
" ....................................... .....................X ",
" ......... ............................. .....................X ",
" .........X  ........................... .....................X ",
" ...........X .......................... .....................X ",
" ....................................... .....................X ",
" ....................................... ...................... ",
" ....................................... ...................... ",
" ....................................... ...................... ",
"  ...................................... ...................... ",
"  ......................................  ..................... ",
"                              .....   .       ................  ",
"                                                                ",
" .....XXXXXXXXXXXXXXXXX ...XXXXXX....XXXXXXXXXXXXXXXXXXXXXXXXXX ",
" .....................X ....................................... ",
" .....................X ....................................... ",
" .....................X ....................................... ",
" .....................X ....................................... ",
" .....................X ....................................... ",
" ...................... ....................................... ",
" ...................... ....................................... ",
" ...................... ....................................... ",
" ...................... ....................................... ",
"  ..................... ....................................... ",
"  .....................  ...................................... ",
"  ....................   ...................................... ",
"           ......... .    ........        ....................  ",
"                                                                "
};
